<svg xmlns="http://www.w3.org/2000/svg" width="217" height="57" viewBox="0 0 217 57"><title>logotype</title><g fill="none" fill-rule="evenodd"><path fill="#fff" d="M-17-14h250v93H-17z"/><g fill="#000" fill-rule="nonzero"><path d="M41.815 10v13.333h-5.631v-7.676H7.63v28.686h8.686l20.19-15.676h5.309V50H31.358v-5.657h4.826v-8.358L18.248 50H2V10zM68.074 45.064q3.344 0 5.853-1.148t3.93-3.192 1.42-4.704q0-3.164-2.02-5.418t-5.727-3.346L66.625 25.8a13 13 0 0 1-1.84-.7 4 4 0 0 1-1.449-1.12q-.557-.7-.557-1.764 0-1.568 1.212-2.548t3.275-.98q2.397 0 4.32 1.288t2.815 3.5l4.877-2.296q-1.338-3.668-4.57-5.712-3.234-2.044-7.359-2.044-3.093 0-5.546 1.134t-3.846 3.178-1.393 4.788q0 3.024 1.923 5.278t5.852 3.374l4.738 1.344a10.3 10.3 0 0 1 1.868.7 4.8 4.8 0 0 1 1.533 1.148q.613.7.613 1.82 0 1.709-1.394 2.73-1.394 1.022-3.623 1.022a8.15 8.15 0 0 1-4.78-1.512q-2.16-1.512-3.386-4.116l-4.822 2.296q1.394 3.892 4.864 6.174t8.124 2.282m23.383-30.968h-5.992v41.496h6.271l-.001-14.741.2.243a10.5 10.5 0 0 0 2.635 2.175l.622.339q2.871 1.456 6.354 1.456 4.348 0 7.762-2.086t5.393-5.684 1.979-8.05q0-4.508-1.993-8.078-1.992-3.57-5.407-5.656-3.413-2.085-7.706-2.086-3.595 0-6.382 1.47-2.168 1.143-3.644 2.956l-.092.118zm9.476 25.088q-2.619 0-4.71-1.288t-3.289-3.542-1.198-5.11 1.198-5.11 3.29-3.542 4.71-1.288q2.675 0 4.751 1.302t3.26 3.528q1.185 2.226 1.185 5.11 0 2.856-1.184 5.11-1.185 2.254-3.26 3.542-2.078 1.288-4.753 1.288m36.009 5.88q3.094 0 5.671-.98t4.46-2.674q1.88-1.694 2.773-3.822l-5.128-2.548a9.36 9.36 0 0 1-3.052 3.192q-1.91 1.232-4.669 1.232-2.648 0-4.751-1.274t-3.233-3.584q-.754-1.54-.892-3.422l-.006-.12h22.427q.112-.448.18-.946l.057-.51q.07-.785.07-1.512 0-2.94-.975-5.572a14.4 14.4 0 0 0-2.83-4.69q-1.853-2.058-4.514-3.234t-6.09-1.176q-4.209 0-7.567 2.044t-5.323 5.586-1.965 8.106q0 4.48 1.951 8.092t5.42 5.712q3.471 2.1 7.986 2.1m7.231-19.04h-15.915l.025-.158q.163-.919.468-1.733l.22-.531q1.059-2.338 3.024-3.598 1.964-1.26 4.445-1.26 2.508 0 4.39 1.26t2.787 3.416a7.4 7.4 0 0 1 .547 2.303zm19.078 18.368-.001-9.168 4.536-4.84 9.233 14.008h7.247l-11.873-18.116 11.37-12.18h-7.859L163.25 27.229 163.251 2h-6.27v42.392zm31.605 0V26.528q0-2.24.85-3.85a6.1 6.1 0 0 1 2.383-2.492q1.533-.882 3.495-.882t3.47.882a6.07 6.07 0 0 1 2.344 2.478q.836 1.596.836 3.864v17.864h6.27V24.829q0-3.341-1.462-5.917a10.54 10.54 0 0 0-4.028-4.032q-2.564-1.455-5.88-1.456-3.261 0-5.714 1.498a8.25 8.25 0 0 0-2.663 2.588l-.18.303v-3.717h-5.992v30.296z"/></g></g></svg>